<?xml version='1.0' encoding='utf-8'?>
<svg xmlns="http://www.w3.org/2000/svg" version="1.1" viewBox="0 0 302.03 413.6">
 <path d="m248.69 206.23c-2.739-53.703 56.873 5.935 17.757 33.128-15.725 3.044-14.483-10.883-20.293-17.757 2.183-6.29 17.655 0.73498 20.293-5.073 1.094-5.302-1.724-6.722-2.536-10.147 0.43097-4.11-15.221-4.16-15.221-0.15099z"/>
 <path d="m261.37 208.92c0.76401 6.647-24.099 9.106-22.83 0h22.83z"/>
 <g transform="translate(-144.01 -43.001)" fill="#ff0">
  <path d="m354.65 150.45c5.987 27.016 11.772 76.178 20.294 109.08-5.936 0.81201-9.513 4.008-17.757 2.536 7.405-34.701-18.239-65.041-2.537-111.62z"/>
  <path d="m347.04 399.04c3.449 13.951 16.617 15.805 15.22 27.904-15.981-0.077-27.953-4.159-38.051-10.146 9.512-49.288 3.044-112.83-17.757-147.13 10.427-3.119 26.712-0.354 35.515-5.073 21.917 31.453-4.262 96.598 5.073 134.44z"/>
 </g>
 <path d="m205.56 208.91c-233.05 152.06-116.52 76.029 0 0z" fill="#fff"/>
 <path d="m208.1 213.99c-18.795 10.781-56.492 2.688-78.638 10.146 19.508-10.094 53.247-5.963 78.638-10.146z"/>
 <path d="m157.37 226.67c-15.98 55.25-25.063 129.17-30.44 180.1-25.697-1.191-10.83-27.677-10.147-40.588 2.26-41.501 1.524-96.877 5.073-136.98 13.268 0.55798 25.342-0.051 35.514-2.536z" fill="#ff0"/>
 <g transform="translate(-144.01 -43.001)" fill="#fff">
  <path d="m253.36 265.08c0.76099 3.78-5.352 7.305 0 0z"/>
  <path d="m248.99 263.2c-0.25499 3.094-0.56 6.114-0.89 9.005-0.22699-1.623-0.073-6.671 0.89-9.005z"/>
 </g>
 <path d="m40.685 221.6c16.793-48.401 52.587 22.451 20.294 38.05-15.423 1.903-16.692-10.374-20.294-20.293 6.749-0.025 14.512 0.96298 17.757-2.537v-10.146c-0.355-7.256-10.579-4.643-17.757-5.074z"/>
 <path d="m12.785 229.21c16.437 2.968 32.722-5.125 43.121 0-10.578 1.093-36.629 11.443-43.121 0z"/>
 <path d="m248.69 206.23c0-4.009 15.651-3.959 15.221 0.151 0.81299 3.426 3.63 4.846 2.536 10.147-2.638 5.809-18.11-1.217-20.293 5.073 5.81 6.874 4.568 20.801 20.293 17.757 39.116-27.193-20.496-86.832-17.757-33.128zm53.272 0.15c0.86401 10.147-7.229 11.339-17.757 10.147 3.02 33.509-44.012 35.741-43.124 2.536-13.521 3.118-20.165 10.932-32.977 2.537 12.658 39.469-8.421 91.17 0 129.37 3.246 14.61 20.016 19.66 17.756 35.513-15.118 11.925-35.665-1.52-48.197-7.608-0.27704-40.283 5.938-104.08-15.22-136.98-14.383 51.547-24.985 106.92-27.903 169.96-13.623 5.428-20.344-2.891-27.904-10.146-1.521-60.069 13.952-111.82 5.073-164.89-6.594-5.25-18.29-5.378-30.44-5.073 2.995 33.866-43.681 45.99-45.658 7.61-13.397-3.426-29.301 9.589-35.514-2.537-1.625-16.005 16.563-12.2 30.44-12.684 8.318-6.062 9.713-19.05 17.754-25.367 21.334-4.439 23.923 9.918 30.441 20.293h15.22c9.972-52.61 9.743-115.42 35.515-152.2 12.406-2.004 24.861-3.906 30.439-12.683-15.599-26.153 5.402-70.241 38.052-48.197 5.429 15.6 8.751 41.424-2.538 53.271 38.786 24.631 18.038 108.8 43.124 147.13 7.053-17.985 11.618-30.44 27.903-27.904 16.285 2.513 13.472 28.083 35.515 27.904zm-63.418 2.537c-1.269 9.106 23.594 6.647 22.83 0zm-7.61 7.611c-8.521-32.901-14.307-82.063-20.294-109.08-15.701 46.574 9.942 76.914 2.537 111.62 8.245 1.472 11.822-1.725 17.757-2.536zm-12.683 167.42c1.397-12.1-11.771-13.953-15.22-27.904-9.335-37.847 16.844-102.99-5.073-134.44-8.803 4.719-25.088 1.954-35.515 5.073 20.801 34.297 27.269 97.841 17.757 147.13 10.098 5.987 22.069 10.069 38.051 10.146zm-10.147-286.65c2.563-0.024 3.02 2.055 5.073 2.537-0.607-31.227-33.687-27.979-38.051-45.66 3.02 2.917 8.979 2.866 15.22 2.537 10.554-12.708 8.475-37.188 0-50.734-37.465-7.788-20.091 30.795-30.44 32.977 0.76398 8.828 6.874-0.228 7.61 5.074-2.231 7.052-3.145 15.423-7.61 20.293-57.304 10.882-50.1 98.449-54.918 155.88-0.963 2.334-1.117 7.383-0.89 9.005 0.33-2.891 0.63501-5.911 0.89-9.005 0.40601-0.991 0.93901-1.496 1.647-1.142 1.727 0.862 2.512 1.954 2.715 3.02-5.353 7.306 0.76099 3.78 0 0 0.50899-0.711 1.143-1.548 1.928-2.486-2.992 3.958 7.561-4.489 10.577-0.53302-0.10199 2.688 1.22 6.443 2.537 2.537-7.989-27.852-2.256-95.38 20.294-116.69-6.342 34.194-21.815 66.182-15.22 109.08 24.378-0.17596 43.022-6.037 68.491-5.074-18.595-36.858 10.325-70.395 10.147-111.62zm-78.637 126.84c22.146-7.459 59.843 0.63498 78.638-10.146-25.392 4.183-59.131 0.052-78.638 10.146zm-2.537 182.64c5.378-50.938 14.46-124.86 30.44-180.1-10.172 2.484-22.246 3.094-35.515 2.536-3.549 40.104-2.813 95.48-5.073 136.98-0.68298 12.911-15.55 39.396 10.148 40.588zm-65.955-147.13c32.293-15.599-3.5-86.451-20.294-38.05 7.179 0.43097 17.402-2.183 17.757 5.073v10.146c-3.245 3.5-11.008 2.512-17.757 2.537 3.603 9.92 4.871 22.197 20.294 20.294zm-5.073-30.441c-10.399-5.125-26.685 2.968-43.121 0 6.492 11.443 32.543 1.093 43.121 0z"/>
 <path d="m111.27 219.6c-0.78499 0.93802-1.419 1.775-1.928 2.486-0.203-1.065-0.98801-2.157-2.715-3.02-0.70799-0.354-1.241 0.14999-1.647 1.142 4.818-57.431-2.386-145 54.918-155.88 4.466-4.87 5.379-13.241 7.61-20.293-0.73599-5.301-6.847 3.754-7.61-5.074 10.35-2.181-7.024-40.764 30.44-32.977 8.475 13.545 10.554 38.025 0 50.734-6.24 0.33-12.2 0.38-15.22-2.537 4.364 17.681 37.443 14.434 38.051 45.66-2.054-0.48099-2.51-2.561-5.073-2.537 0.17798 41.221-28.742 74.757-10.146 111.62-25.469-0.963-44.113 4.898-68.491 5.074-6.596-42.896 8.878-74.884 15.22-109.08-22.55 21.308-28.283 88.836-20.294 116.69-1.317 3.906-2.639 0.14996-2.537-2.537-3.017-3.955-13.57 4.492-10.578 0.534z" fill="#ff0"/>
 <g transform="translate(-144.01 -43.001)" font-family="serif" font-size="24px" stroke-linecap="null" stroke-linejoin="null" text-anchor="middle">
  <text x="167" y="12" opacity=".5" stroke-width="0"/>
  <g stroke-width="4">
   <text x="110" y="13" opacity=".5"/>
   <text transform="matrix(26.917 -.023039 .0011172 1.3052 -3542.2 5.5557)" x="142.00002" y="17" opacity=".5"/>
  </g>
 </g>
</svg>