<svg xmlns="http://www.w3.org/2000/svg" version="1.1" xmlns:xlink="http://www.w3.org/1999/xlink" width="1500" height="62" viewBox="0 0 1500 62"><svg xml:space="preserve" width="1500" height="62" data-version="2" data-id="lg_LjP7H3FzQK0nOtlvSt" viewBox="0 0 569 62" x="0" y="0"><rect width="100%" height="100%" fill="transparent"></rect><path fill="#333" d="M116.861 25.057c0-.556-.252-1.06-.631-1.402V21.9a1.263 1.263 0 0 0-2.526 0v1.263h-2.488v-11.1a5.304 5.304 0 0 0-5.29-5.279h-1.693a5.304 5.304 0 0 0-5.278 5.279v11.1h-1.87V6.418a5.304 5.304 0 0 0-5.278-5.291h-4.52a5.304 5.304 0 0 0-5.292 5.291v10.43H40.588V5.85A5.284 5.284 0 0 0 35.31.57h-4.521a5.304 5.304 0 0 0-5.279 5.28v17.313h-1.869v-11.1a5.304 5.304 0 0 0-5.278-5.279H16.67a5.304 5.304 0 0 0-5.291 5.279v11.1H8.892V21.9a1.263 1.263 0 1 0-2.526 0v1.755a1.894 1.894 0 0 0 0 2.804v1.755a1.263 1.263 0 1 0 2.526 0v-1.263h2.488v11.1a5.304 5.304 0 0 0 5.29 5.279h1.693a5.284 5.284 0 0 0 5.278-5.279v-11.1h1.87v16.745a5.304 5.304 0 0 0 5.278 5.291h4.52a5.304 5.304 0 0 0 5.292-5.291v-10.43h41.407v10.998a5.304 5.304 0 0 0 5.278 5.291h4.521a5.304 5.304 0 0 0 5.279-5.29V26.95h1.869v11.1a5.304 5.304 0 0 0 5.278 5.279h1.705a5.284 5.284 0 0 0 5.278-5.279v-11.1h2.488v1.263a1.263 1.263 0 0 0 2.526 0v-1.755c.379-.341.631-.846.631-1.402M19.853 38.051c0 .821-.67 1.49-1.49 1.49H16.67a1.495 1.495 0 0 1-1.503-1.49v-26c0-.822.67-1.49 1.503-1.49h1.692c.82 0 1.49.668 1.49 1.49zm16.96 5.645a1.515 1.515 0 0 1-1.503 1.503h-4.521c-.821 0-1.49-.67-1.49-1.503V5.862c0-.82.669-1.49 1.49-1.49h4.52c.821 0 1.503.67 1.503 1.49zm44.69-14.22h-40.41v-8.839h40.41zm11.794 14.788a1.515 1.515 0 0 1-1.49 1.503h-4.52a1.515 1.515 0 0 1-1.503-1.503V6.418c0-.833.682-1.503 1.502-1.503h4.521c.821 0 1.49.67 1.49 1.503zm14.131-6.213a1.515 1.515 0 0 1-1.503 1.49h-1.692c-.82 0-1.49-.669-1.49-1.49v-26c0-.822.67-1.49 1.49-1.49h1.692c.821 0 1.503.668 1.503 1.49z"></path><path fill="#333" d="M45.513 26.32h31.57a1.263 1.263 0 1 0 0-2.526h-31.57a1.263 1.263 0 1 0 0 2.526m103.992 19.869h.33v.67h-9.58v-.67h.34q.53 0 .93-.37.41-.37.71-.9.3-.54.43-1.14.14-.61.14-1.14V6.789q0-.47-.14-1.07-.13-.6-.4-1.14-.27-.53-.7-.9-.44-.37-.97-.37h-.34v-.67h25.73v6.23h-.67q0-1.54-1.04-2.71-1.04-1.18-3.25-1.18h-13.73v16.96h11.12q1.54 0 2.58-.94t1.04-2.21h.67v8.37h-.67q0-1.2-1.01-2.08-1-.87-2.61-.87h-11.12v18.43q0 .53.13 1.14.13.6.44 1.14.3.53.7.9.4.37.94.37m31.15.67h-8.71v-.67q.54 0 .94-.4.4-.4.67-.94.27-.54.4-1.17.14-.64.14-1.18v-18.55q0-1.14-.34-2.18-.33-1.04-1.94-1.11v-.6l6.7-2.14v24.58q0 .54.13 1.18.14.63.4 1.17.27.54.67.94.41.4.94.4zm-8.37-35.38q0-1.34.9-2.27.91-.94 2.25-.94 1.34 0 2.27.94.94.93.94 2.27 0 1.34-.94 2.21-.93.88-2.27.88-1.34 0-2.25-.88-.9-.87-.9-2.21m33.9 8.04-2.01 4.09q-.8-1.34-1.68-1.67-.87-.34-2.01-.34-.73 0-1.57.34-.84.33-1.64.87-.81.53-1.58 1.17-.77.64-1.3 1.17v17.42q0 .54.13 1.14.14.6.44 1.17t.67.94q.37.37.9.37v.67h-8.71v-.67q.47 0 .87-.37t.71-.94q.3-.57.43-1.17.14-.6.14-1.14v-18.69q0-.94-.61-1.88-.6-.94-1.74-1.2v-.54l6.77-2.01v4.02q.6-.74 1.27-1.44t1.51-1.27q.84-.57 1.84-.94 1.01-.37 2.35-.37.93 0 2.41.4 1.47.4 2.41.87m26 19.7q0 1.74-.88 3.22-.87 1.47-2.37 2.58-1.51 1.1-3.52 1.74-2.01.64-4.36.64-2.88 0-4.69-.78-1.81-.77-3.08-1.57-.87-.54-1.61-.9-.73-.37-1.6-.37v-5.09h.67q.2.93 1.17 2.04.97 1.1 2.34 2.04 1.38.94 3.02 1.58 1.64.63 3.31.63 1.21 0 2.48-.26 1.28-.27 2.31-.88 1.04-.6 1.75-1.5.7-.91.7-2.18t-.74-2.21q-.73-.94-1.87-1.64-1.14-.71-2.62-1.24-1.47-.54-2.94-1.01-1.75-.53-3.52-1.2-1.78-.67-3.18-1.58-1.41-.9-2.28-2.21-.87-1.31-.87-3.11 0-1.55.57-2.95.57-1.41 1.87-2.45 1.31-1.04 3.39-1.67 2.07-.64 5.02-.64 2.61 0 4.05.44 1.45.43 2.38.9.61.34 1.21.5.6.17 1.34.17v4.69h-.54q-1.2-2.21-3.68-3.35-2.48-1.14-5.09-1.14-1.68 0-2.88.44-1.21.43-1.98 1.07-.77.64-1.14 1.44-.37.8-.37 1.61 0 1.14.64 1.94.63.8 1.74 1.41 1.11.6 2.48 1.14 1.37.53 2.91 1 1.88.6 3.76 1.31 1.87.7 3.35 1.71 1.47 1 2.41 2.37.94 1.38.94 3.32m19.83-18.22h-7.51v16.14q0 1.75.07 3.15.07 1.41.34 2.35.26.94.8 1.44t1.47.5q1.41 0 2.65-1.34t1.57-3.21h.61v4.89q-.61 0-1.01.4-.53.47-1.51 1-.97.54-2.91.54-2.41 0-3.75-.94-1.34-.94-1.94-2.48-.61-1.54-.71-3.41-.1-1.88-.1-3.82v-15.21h-3.75v-2.28h3.75v-5.96q0-1.14-.3-2.11-.3-.98-1.98-1.04v-.67l6.7-2.15v11.93h7.51zm26.8 18.22q0 1.74-.87 3.22-.87 1.47-2.38 2.58-1.51 1.1-3.52 1.74-2.01.64-4.35.64-2.89 0-4.69-.78-1.81-.77-3.09-1.57-.87-.54-1.6-.9-.74-.37-1.61-.37v-5.09h.67q.2.93 1.17 2.04.97 1.1 2.34 2.04 1.38.94 3.02 1.58 1.64.63 3.32.63 1.2 0 2.48-.26 1.27-.27 2.31-.88 1.04-.6 1.74-1.5.7-.91.7-2.18t-.73-2.21q-.74-.94-1.88-1.64-1.14-.71-2.61-1.24-1.48-.54-2.95-1.01-1.74-.53-3.52-1.2-1.77-.67-3.18-1.58-1.41-.9-2.28-2.21-.87-1.31-.87-3.11 0-1.55.57-2.95.57-1.41 1.87-2.45 1.31-1.04 3.39-1.67 2.08-.64 5.02-.64 2.62 0 4.06.44 1.44.43 2.38.9.6.34 1.2.5.6.17 1.34.17v4.69h-.53q-1.21-2.21-3.69-3.35-2.48-1.14-5.09-1.14-1.68 0-2.88.44-1.21.43-1.98 1.07-.77.64-1.14 1.44-.37.8-.37 1.61 0 1.14.64 1.94t1.74 1.41q1.11.6 2.48 1.14 1.37.53 2.92 1 1.87.6 3.75 1.31 1.87.7 3.35 1.71 1.47 1 2.41 2.37.94 1.38.94 3.32m19.83-18.22h-7.5v16.14q0 1.75.06 3.15.07 1.41.34 2.35.27.94.8 1.44.54.5 1.48.5 1.4 0 2.64-1.34 1.24-1.34 1.58-3.21h.6v4.89q-.6 0-1.01.4-.53.47-1.5 1-.97.54-2.92.54-2.41 0-3.75-.94-1.34-.94-1.94-2.48-.61-1.54-.71-3.41-.1-1.88-.1-3.82v-15.21h-3.75v-2.28h3.75v-5.96q0-1.14-.3-2.11-.3-.98-1.97-1.04v-.67l6.7-2.15v11.93h7.5zm31.96 12.33h-23.25q.27 2.34 1.14 4.45.87 2.11 2.31 3.72 1.44 1.61 3.52 2.58 2.07.97 4.82.97 1.48 0 3.12-.44 1.64-.43 3.05-1.23 1.4-.81 2.51-1.98 1.1-1.17 1.51-2.65h.6v5.03q-.4 0-.91.27-.5.26-1.17.67-1.34.8-3.62 1.7-2.27.91-6.03.91-3.01 0-5.73-.87-2.71-.87-4.79-2.68-2.07-1.81-3.31-4.63-1.24-2.81-1.24-6.7 0-2.47.84-5.02.83-2.55 2.54-4.59t4.39-3.32q2.68-1.27 6.43-1.27 3.35 0 5.86 1.14 2.52 1.14 4.16 3.15 1.64 2.01 2.44 4.76.81 2.74.81 6.03m-13.54-12.87q-2.34 0-4.05.94t-2.91 2.41q-1.21 1.48-1.88 3.35-.67 1.88-.87 3.75h19.09q-.06-1.94-.7-3.82-.64-1.87-1.77-3.35-1.14-1.47-2.89-2.37-1.74-.91-4.02-.91m33.37-2.21q3.62 0 6.26 1.24 2.65 1.24 4.43 3.25 1.77 2.01 2.64 4.62.87 2.62.87 5.36 0 2.68-.83 5.3-.84 2.61-2.55 4.69-1.71 2.07-4.25 3.35-2.55 1.27-6.03 1.27-2.08 0-4.26-1.11-2.18-1.1-3.92-2.78v13.13q0 .54.14 1.18.13.63.43 1.17.3.54.67.94.37.4.91.4v.67h-8.71v-.67q.47 0 .87-.4t.7-.94q.3-.54.44-1.17.13-.64.13-1.18v-33.9q0-.6-.03-1.17-.04-.57-.24-1.01-.2-.43-.63-.73-.44-.3-1.24-.37v-.67h6.56v2.95q1.34-1.61 3.25-2.52 1.91-.9 4.39-.9m.6 26.8q2.35-.07 4.09-1.07 1.74-1.01 2.88-2.61 1.14-1.61 1.68-3.59.53-1.98.53-4.12 0-2.41-.67-4.76-.67-2.34-1.94-4.18-1.27-1.85-3.12-3.02-1.84-1.17-4.18-1.17-1.41 0-2.78.53-1.38.54-2.42 1.55-1.03 1-1.67 2.37-.64 1.38-.64 3.05v8.78q0 1.81.74 3.32.74 1.5 1.91 2.61 1.17 1.1 2.65 1.71 1.47.6 2.94.6m33.77-11.99h-15.21v-3.35h15.21zm19.63-12.06h-7.57v21.5q0 .54.14 1.18.13.63.43 1.17.3.54.67.94.37.4.91.4v.67h-8.71v-.67q.46 0 .87-.4.4-.4.7-.94.3-.54.44-1.17.13-.64.13-1.18v-21.5h-3.35v-2.28h3.35v-5.43q0-2.07.13-4.02.14-1.94.81-3.48t2.04-2.48q1.37-.94 3.79-.94 1.34 0 2.31.3t1.67.67q.71.37 1.18.67.46.3.8.3v4.9h-.6q-.34-1.95-1.75-3.25-1.4-1.31-2.81-1.31-1.94 0-2.55 2.04-.6 2.05-.6 5.66v6.37h7.57zm14.61 25.86h-8.71v-.67q.53 0 .94-.4.4-.4.67-.94.26-.54.4-1.17.13-.64.13-1.18v-18.55q0-1.14-.33-2.18-.34-1.04-1.95-1.11v-.6l6.7-2.14v24.58q0 .54.14 1.18.13.63.4 1.17.27.54.67.94.4.4.94.4zm-8.38-35.38q0-1.34.91-2.27.9-.94 2.24-.94 1.34 0 2.28.94.94.93.94 2.27 0 1.34-.94 2.21-.94.88-2.28.88-1.34 0-2.24-.88-.91-.87-.91-2.21m29.62 9.52h-7.51v16.14q0 1.75.07 3.15.07 1.41.34 2.35.26.94.8 1.44t1.47.5q1.41 0 2.65-1.34t1.57-3.21h.61v4.89q-.61 0-1.01.4-.53.47-1.51 1-.97.54-2.91.54-2.41 0-3.75-.94-1.34-.94-1.94-2.48-.61-1.54-.71-3.41-.1-1.88-.1-3.82v-15.21h-3.75v-2.28h3.75v-5.96q0-1.14-.3-2.11-.3-.98-1.98-1.04v-.67l6.7-2.15v11.93h7.51zm31.96 8.57v12.93q0 .54.13 1.18.13.63.44 1.17.3.54.67.94.36.4.9.4v.67h-8.64v-.67q.47 0 .87-.4t.7-.94q.3-.54.44-1.17.13-.64.13-1.18v-12.46q0-2.41-.67-4.22-.67-1.81-1.81-3.01-1.14-1.21-2.58-1.78-1.44-.57-2.91-.57-1.48 0-2.92.6-1.44.61-2.54 1.58-1.11.97-1.81 2.28-.7 1.3-.7 2.71v14.87q0 .54.13 1.18.13.63.43 1.17.31.54.67.94.37.4.91.4v.67h-8.71v-.67q.47 0 .87-.4t.7-.94q.31-.54.44-1.17.13-.64.13-1.18v-18.49q0-1.14-.33-2.18-.34-1.03-1.94-1.1v-.6l6.7-2.15v3.69q.46-.54 1.2-1.18.74-.63 1.78-1.2t2.41-.94q1.37-.37 3.25-.37 3.15 0 5.36 1.07 2.21 1.08 3.62 2.78 1.4 1.71 2.04 3.76.64 2.04.64 3.98m35.64 3.76h-23.25q.27 2.34 1.14 4.45.87 2.11 2.31 3.72 1.44 1.61 3.52 2.58t4.82.97q1.48 0 3.12-.44 1.64-.43 3.05-1.23 1.4-.81 2.51-1.98 1.11-1.17 1.51-2.65h.6v5.03q-.4 0-.9.27-.51.26-1.18.67-1.34.8-3.61 1.7-2.28.91-6.03.91-3.02 0-5.73-.87-2.72-.87-4.79-2.68-2.08-1.81-3.32-4.63-1.24-2.81-1.24-6.7 0-2.47.84-5.02.84-2.55 2.54-4.59 1.71-2.04 4.39-3.32 2.68-1.27 6.43-1.27 3.35 0 5.87 1.14 2.51 1.14 4.15 3.15 1.64 2.01 2.45 4.76.8 2.74.8 6.03m-13.53-12.87q-2.35 0-4.06.94-1.71.94-2.91 2.41-1.21 1.48-1.88 3.35-.67 1.88-.87 3.75h19.1q-.07-1.94-.71-3.82-.63-1.87-1.77-3.35-1.14-1.47-2.88-2.37-1.75-.91-4.02-.91m40.87 18.76q0 1.74-.87 3.22-.88 1.47-2.38 2.58-1.51 1.1-3.52 1.74-2.01.64-4.36.64-2.88 0-4.69-.78-1.8-.77-3.08-1.57-.87-.54-1.61-.9-.73-.37-1.6-.37v-5.09h.67q.2.93 1.17 2.04.97 1.1 2.34 2.04 1.38.94 3.02 1.58 1.64.63 3.32.63 1.2 0 2.47-.26 1.28-.27 2.32-.88 1.03-.6 1.74-1.5.7-.91.7-2.18t-.74-2.21q-.73-.94-1.87-1.64-1.14-.71-2.61-1.24-1.48-.54-2.95-1.01-1.74-.53-3.52-1.2-1.78-.67-3.18-1.58-1.41-.9-2.28-2.21-.87-1.31-.87-3.11 0-1.55.57-2.95.57-1.41 1.87-2.45 1.31-1.04 3.39-1.67 2.07-.64 5.02-.64 2.62 0 4.06.44 1.44.43 2.37.9.61.34 1.21.5.6.17 1.34.17v4.69h-.54q-1.2-2.21-3.68-3.35-2.48-1.14-5.09-1.14-1.68 0-2.88.44-1.21.43-1.98 1.07-.77.64-1.14 1.44-.37.8-.37 1.61 0 1.14.64 1.94t1.74 1.41q1.11.6 2.48 1.14 1.37.53 2.91 1 1.88.6 3.76 1.31 1.87.7 3.35 1.71 1.47 1 2.41 2.37.94 1.38.94 3.32m27.53 0q0 1.74-.87 3.22-.87 1.47-2.38 2.58-1.5 1.1-3.51 1.74-2.01.64-4.36.64-2.88 0-4.69-.78-1.81-.77-3.08-1.57-.87-.54-1.61-.9-.74-.37-1.61-.37v-5.09h.67q.2.93 1.18 2.04.97 1.1 2.34 2.04 1.37.94 3.02 1.58 1.64.63 3.31.63 1.21 0 2.48-.26 1.27-.27 2.31-.88 1.04-.6 1.74-1.5.71-.91.71-2.18t-.74-2.21q-.74-.94-1.87-1.64-1.14-.71-2.62-1.24-1.47-.54-2.95-1.01-1.74-.53-3.51-1.2-1.78-.67-3.19-1.58-1.4-.9-2.27-2.21-.87-1.31-.87-3.11 0-1.55.56-2.95.57-1.41 1.88-2.45 1.31-1.04 3.38-1.67 2.08-.64 5.03-.64 2.61 0 4.05.44 1.44.43 2.38.9.6.34 1.21.5.6.17 1.34.17v4.69h-.54q-1.2-2.21-3.68-3.35-2.48-1.14-5.1-1.14-1.67 0-2.88.44-1.2.43-1.97 1.07-.77.64-1.14 1.44-.37.8-.37 1.61 0 1.14.64 1.94.63.8 1.74 1.41 1.1.6 2.48 1.14 1.37.53 2.91 1 1.88.6 3.75 1.31 1.88.7 3.35 1.71 1.48 1 2.42 2.37.93 1.38.93 3.32"></path></svg></svg>